<?xml version="1.0" encoding="utf-8"?>
<svg width="428px" height="513px" viewBox="0 0 428 513" version="1.1" xmlns:xlink="http://www.w3.org/1999/xlink" xmlns="http://www.w3.org/2000/svg">
  <desc>Created with Lunacy</desc>
  <g id="pin-now" transform="translate(0.5 0.5)">
    <g id="Group" transform="translate(85.321 0)">
      <g id="Group">
        <g id="Group">
          <path d="M0 170.641C0 76.553 76.561 0 170.666 0C264.772 0 341.333 76.553 341.334 170.641C341.334 216.542 327.331 244.565 307.943 283.349C304.931 289.374 301.773 295.68 298.505 302.387C250.752 400.452 178.449 507.17 177.724 508.237C176.137 510.576 173.491 511.975 170.667 511.975C167.843 511.975 165.197 510.575 163.61 508.237C162.884 507.17 90.582 400.452 42.829 302.387C39.561 295.68 36.403 289.374 33.391 283.349C14.003 244.565 0 216.542 0 170.641ZM68.266 170.641C68.266 227.106 114.201 273.041 170.666 273.041C227.131 273.041 273.066 227.106 273.066 170.641C273.066 114.176 227.131 68.241 170.666 68.241C114.201 68.241 68.266 114.176 68.266 170.641Z" stroke="none" />
          <path d="M0 85.333C0 38.281 38.28 0 85.333 0C132.386 0 170.666 38.281 170.666 85.333C170.666 132.385 132.385 170.666 85.333 170.666C38.281 170.666 0 132.385 0 85.333ZM40.0015 70C31.7172 70 25.0015 76.7157 25.0015 85C25.0015 93.2843 31.7172 100 40.0015 100C48.2857 100 55.0015 93.2843 55.0015 85C55.0015 76.7157 48.2857 70 40.0015 70ZM70.0019 85C70.002 76.7157 76.7177 70 85.002 70C93.2862 70 100.002 76.7157 100.002 85C100.002 93.2843 93.2862 100 85.0019 100C76.7177 100 70.0019 93.2843 70.0019 85ZM130.002 70C121.718 70 115.002 76.7157 115.002 85C115.002 93.2843 121.718 100 130.002 100C138.286 100 145.002 93.2843 145.002 85C145.002 76.7157 138.286 70 130.002 70Z" transform="translate(85.33195 85.309)" stroke="none" />
        </g>
      </g>
    </g>
    <g id="Group" />
    <g id="Group" />
    <g id="Group" />
    <g id="Group" />
    <g id="Group" />
    <g id="Group" />
    <g id="Group" />
    <g id="Group" />
    <g id="Group" />
    <g id="Group" />
    <g id="Group" />
    <g id="Group" />
    <g id="Group" />
    <g id="Group" />
    <g id="Group" />
  </g>
</svg>