<?xml version="1.0" encoding="utf-8"?>
<svg width="427px" height="512px" viewBox="0 0 427 512" version="1.1" xmlns:xlink="http://www.w3.org/1999/xlink" xmlns="http://www.w3.org/2000/svg">
  <desc>Created with Lunacy</desc>
  <g id="pin-done">
    <g id="Group" transform="translate(85.32098 0)">
      <g id="Group">
        <g id="Group">
          <path d="M0 170.641C0 76.553 76.561 0 170.666 0C264.772 0 341.333 76.553 341.334 170.641C341.334 216.542 327.331 244.565 307.943 283.349C304.931 289.374 301.773 295.68 298.505 302.387C250.752 400.452 178.449 507.17 177.724 508.237C176.137 510.576 173.491 511.975 170.667 511.975C167.843 511.975 165.197 510.575 163.61 508.237C162.884 507.17 90.582 400.452 42.829 302.387C39.561 295.68 36.403 289.374 33.391 283.349C14.003 244.565 0 216.542 0 170.641ZM68.266 170.641C68.266 227.106 114.201 273.041 170.666 273.041C227.131 273.041 273.066 227.106 273.066 170.641C273.066 114.176 227.131 68.241 170.666 68.241C114.201 68.241 68.266 114.176 68.266 170.641Z" id="Shape" fill="#000000" fill-rule="evenodd" stroke="none" />
          <path d="M0 85.333C0 38.281 38.28 0 85.333 0C132.386 0 170.666 38.281 170.666 85.333C170.666 132.385 132.385 170.666 85.333 170.666C38.281 170.666 0 132.385 0 85.333ZM74.7986 115.338L128.569 38.0835C131.606 33.7115 137.582 32.6257 141.945 35.691C146.307 38.7274 147.374 44.7137 144.347 49.0665L84.6379 134.864C83.1005 137.064 80.7176 138.525 78.0655 138.89C77.6235 138.957 77.1815 138.986 76.7491 138.986C74.5391 138.986 72.3867 138.217 70.6572 136.795L24.6695 99.0419C20.5569 95.6884 19.9611 89.6253 23.3338 85.5223C26.7065 81.429 32.7505 80.814 36.8534 84.1963L74.7986 115.338Z" transform="translate(85.33199 85.309)" id="Shape" fill="#000000" fill-rule="evenodd" stroke="none" />
        </g>
      </g>
    </g>
    <g id="Group" />
    <g id="Group" />
    <g id="Group" />
    <g id="Group" />
    <g id="Group" />
    <g id="Group" />
    <g id="Group" />
    <g id="Group" />
    <g id="Group" />
    <g id="Group" />
    <g id="Group" />
    <g id="Group" />
    <g id="Group" />
    <g id="Group" />
    <g id="Group" />
  </g>
</svg>